<?xml version="1.0" encoding="UTF-8"?> <svg xmlns="http://www.w3.org/2000/svg" width="172" height="64" viewBox="0 0 172 64" fill="none"> <path d="M61.0096 28.0801C59.511 28.0801 58.2722 28.5796 57.2931 29.5787C56.334 30.5577 55.8145 31.8365 55.8145 33.3351C55.8145 34.8937 56.3539 36.1525 57.413 37.1316C58.472 38.1106 59.8507 38.5902 61.5491 38.5902C62.8679 38.5902 64.1666 38.2505 65.3255 37.731V35.7129C64.2066 36.3523 62.8878 36.692 61.5491 36.692C59.8906 36.692 58.3121 35.9727 57.9724 34.0545H65.7452C65.8051 33.8746 65.8451 33.3551 65.8451 32.8756C65.8451 31.9165 65.6053 30.7176 64.6062 29.6186C63.727 28.6196 62.4283 28.0801 61.0096 28.0801ZM60.9496 30.0582C62.2285 30.0582 63.5872 30.8375 63.787 32.396H57.9924C58.2921 30.7975 59.5909 30.0582 60.9496 30.0582Z" fill="black"></path> <path d="M95.0498 28.1758C94.0107 28.1758 92.7719 28.6154 92.0126 29.3946V28.3756H89.9346V38.3662H92.0126V33.3509C92.0126 31.0131 93.4712 30.2139 95.1696 30.2139C95.2696 30.2139 95.4094 30.2338 95.5493 30.2538V28.2157C95.3695 28.1958 95.1497 28.1758 95.0498 28.1758Z" fill="black"></path> <path d="M72.152 33.2316L75.8685 28.3562H73.3509L69.6943 33.2716L73.5707 38.3468H76.0284L72.1121 33.2516L72.152 33.2316Z" fill="black"></path> <path d="M69.6171 24.3H67.5391V38.3468H69.6171V24.3Z" fill="black"></path> <path d="M42.6281 31.4462V30.9067H36.1142V32.8848H40.4502V35.8021C39.4911 36.1817 38.452 36.3816 37.3731 36.3816C35.8745 36.3816 34.6356 35.882 33.6566 34.9229C32.7374 33.9838 32.2579 32.8249 32.2579 31.3463C32.2579 29.8877 32.7174 28.7288 33.6566 27.7697C34.5957 26.8306 36.0543 26.311 37.9125 26.311C39.3712 26.311 40.7699 26.6507 41.9687 27.2901V25.0123C40.7099 24.4528 39.3512 24.1531 37.9125 24.1531C35.5548 24.1731 33.3968 24.9124 32.098 26.2311C30.7393 27.5898 30 29.3282 30 31.3463C30 33.3644 30.7393 35.1028 32.098 36.4815C33.4567 37.8402 35.275 38.5395 37.3531 38.5395C39.2513 38.5395 41.0496 38 42.6081 37.0609V36.1618V31.4462H42.6281Z" fill="black"></path> <path d="M53.0535 29.5387C52.1544 28.5996 50.8956 28.0801 49.5169 28.0801C48.0183 28.0801 46.7795 28.5796 45.8004 29.5787C44.8413 30.5577 44.3218 31.8365 44.3218 33.3351C44.3218 34.8937 44.8613 36.1525 45.9203 37.1316C46.24 37.4113 46.5796 37.6711 46.9593 37.8709C47.8385 38.3504 48.8775 38.5902 50.0764 38.5902C51.3951 38.5902 52.6939 38.2505 53.8528 37.731V35.7129C53.593 35.8528 53.3333 35.9926 53.0735 36.0925C52.1544 36.4922 51.1154 36.672 50.0764 36.672C48.4179 36.672 46.8394 35.9527 46.4997 34.0345H53.0535H54.2524C54.3124 33.8546 54.3523 33.3351 54.3523 32.8556C54.3523 31.8965 54.1125 30.6976 53.1135 29.5986C53.0935 29.5986 53.0735 29.5787 53.0535 29.5387ZM52.2743 32.396H46.4797C46.7994 30.8175 48.0982 30.0582 49.437 30.0582C50.7158 30.0582 52.0745 30.8375 52.2743 32.396Z" fill="black"></path> <path d="M111.054 28.3562H108.976V38.3468H111.054V28.3562Z" fill="black"></path> <path d="M110.015 24C109.635 24 109.316 24.1199 109.076 24.3796C108.816 24.6393 108.696 24.9589 108.696 25.3385C108.696 25.7181 108.816 26.0378 109.076 26.2975C109.336 26.5572 109.635 26.677 110.015 26.677C110.394 26.677 110.714 26.5572 110.954 26.2975C111.213 26.0378 111.333 25.7181 111.333 25.3385C111.333 24.9589 111.213 24.6393 110.954 24.3796C110.714 24.1199 110.394 24 110.015 24Z" fill="black"></path> <path d="M131.576 35.5694C131.576 34.95 131.416 34.4705 131.117 34.0708C130.497 33.1917 129.299 32.7521 127.98 32.4124C127.44 32.2725 126.841 32.1327 126.401 31.8929C126.042 31.6731 125.862 31.4533 125.862 31.0537H125.822H125.862C125.862 30.3743 126.701 30.0546 127.72 30.0546C128.939 30.0546 130.098 30.3344 131.117 30.8938V28.8158C130.058 28.3562 128.899 28.1165 127.72 28.1165C126.661 28.1165 125.562 28.3562 124.843 28.9157C124.123 29.4752 123.824 30.2145 123.824 31.1536C123.824 33.0918 125.502 33.8311 127.42 34.3106C127.96 34.4505 128.559 34.5904 128.999 34.8301C129.358 35.0499 129.538 35.2697 129.538 35.6693C129.538 36.3687 128.799 36.7084 127.58 36.7084C126.281 36.7084 125.063 36.4886 123.964 36.0889V38.0271C125.103 38.4068 126.321 38.6266 127.58 38.6266C128.719 38.6266 129.738 38.3468 130.517 37.8073C130.777 37.6275 130.977 37.4077 131.137 37.1879C131.436 36.7283 131.576 36.1889 131.576 35.5694Z" fill="black"></path> <path d="M86.3028 30.9935C87.2219 30.2942 87.6615 29.435 87.6615 28.2561C87.6615 27.1572 87.2219 26.1781 86.4427 25.4388C85.6634 24.6995 84.4845 24.3198 83.3656 24.3198H77.4512V38.3466H83.8651C85.044 38.3466 86.2029 37.967 87.0221 37.2077C87.8214 36.4684 88.241 35.4693 88.241 34.3304C88.241 32.9317 87.5416 31.6529 86.3028 30.9935ZM79.5892 26.238H83.5854C84.7043 26.238 85.5435 27.1172 85.5435 28.2361C85.5435 29.3751 84.6843 30.2343 83.5854 30.2343H79.5892V26.238ZM83.965 36.4484H79.5892V32.1325H83.965C85.1239 32.1325 86.0431 33.0716 86.0431 34.2904C86.0431 35.4893 85.1239 36.4484 83.965 36.4484Z" fill="black"></path> <path d="M117.865 30.0141C118.824 30.0141 119.443 30.3538 119.823 30.8733C120.203 31.3928 120.283 32.0522 120.283 32.5917V38.3463H122.361V32.5118C122.361 31.2929 122.061 30.2539 121.362 29.4547C121.342 29.4347 121.342 29.4347 121.322 29.4147C120.622 28.6354 119.683 28.0959 118.404 28.0959C117.186 28.0959 116.187 28.5355 115.467 29.115V28.3557H113.389V38.3463H115.467V32.5917C115.467 32.0522 115.607 31.4528 115.987 30.9533C116.167 30.7335 116.346 30.5337 116.586 30.3938C116.926 30.154 117.345 30.0141 117.865 30.0141Z" fill="black"></path> <path d="M104.563 29.3148C103.684 28.4956 102.445 28.0959 101.206 28.0959C99.7677 28.0959 98.5488 28.5955 97.5298 29.6145C97.2501 29.8943 97.0103 30.174 96.8105 30.4937C96.7705 30.5536 96.7306 30.6336 96.6906 30.6935C96.231 31.4728 96.0112 32.3719 96.0112 33.351C96.0112 34.8096 96.5108 36.0684 97.5298 37.0875C98.5488 38.1065 99.7677 38.6061 101.206 38.6061C102.465 38.6061 103.704 38.2064 104.563 37.3672V38.3463H106.641V28.3557H104.563V29.3148ZM103.624 35.7288C103.005 36.3482 102.225 36.6479 101.306 36.6479C100.387 36.6479 99.6078 36.3482 98.9884 35.7288C98.369 35.0894 98.0693 34.3101 98.0693 33.371C98.0693 32.4319 98.369 31.6526 98.9884 31.0332C99.6078 30.3938 100.387 30.0941 101.306 30.0941C102.225 30.0941 103.005 30.3938 103.624 31.0332C104.243 31.6526 104.543 32.4319 104.543 33.371C104.543 34.3101 104.243 35.0894 103.624 35.7288Z" fill="black"></path> <path d="M13.4017 23.0216C13.0132 23.5514 12.75 24.4057 12.75 25.625V27.1977C12.75 27.7086 12.9239 28.2043 13.243 28.6032L14.774 30.5169C14.8477 30.5058 14.9232 30.5 15 30.5C15.8284 30.5 16.5 31.1716 16.5 32C16.5 32.8284 15.8284 33.5 15 33.5C14.1716 33.5 13.5 32.8284 13.5 32C13.5 31.8073 13.5363 31.623 13.6026 31.4538L12.0717 29.5403C11.5398 28.8753 11.25 28.0492 11.25 27.1977V25.625C11.25 24.2193 11.5493 23.0111 12.1921 22.1346C12.8567 21.2283 13.8369 20.75 15 20.75C16.8815 20.75 18.4917 21.9041 19.1642 23.5418C20.8756 24.0445 22.125 25.6257 22.125 27.5C22.125 27.8788 22.1172 28.2834 22.006 28.6859C23.192 29.3156 24 30.5628 24 32C24 33.4372 23.192 34.6845 22.0059 35.3141C22.1171 35.7166 22.1249 36.1211 22.1249 36.4999C22.1249 38.3742 20.8754 39.9554 19.1641 40.4581C18.4916 42.0957 16.8813 43.2499 14.9999 43.2499C14.51 43.2499 14.0369 43.1713 13.5935 43.0255L14.062 41.6006C14.3561 41.6972 14.6711 41.7499 14.9999 41.7499C16.3574 41.7499 17.5061 40.8476 17.8754 39.6085L18.0075 39.1652L18.463 39.0843C19.6918 38.866 20.6249 37.7911 20.6249 36.4999C20.6249 35.8478 20.5743 35.6094 20.393 35.389C20.1453 35.088 19.8113 34.9752 19.4487 35.0139C19.0688 35.0544 18.6734 35.2648 18.4038 35.6018L17.5224 36.7036C17.5886 36.8729 17.625 37.0572 17.625 37.25C17.625 38.0784 16.9534 38.75 16.125 38.75C15.2966 38.75 14.625 38.0784 14.625 37.25C14.625 36.4216 15.2966 35.75 16.125 35.75C16.2017 35.75 16.2771 35.7558 16.3508 35.7669L17.2325 34.6648C17.7451 34.024 18.5009 33.6065 19.2896 33.5224C19.9366 33.4533 20.6132 33.6109 21.1673 34.0554C21.9529 33.7042 22.5 32.9153 22.5 32C22.5 31.0847 21.9529 30.2957 21.1672 29.9446C20.6131 30.389 19.9366 30.5466 19.2896 30.4775C18.501 30.3933 17.7452 29.9758 17.2326 29.3351L16.351 28.2331C16.2773 28.2442 16.2018 28.25 16.125 28.25C15.2966 28.25 14.625 27.5784 14.625 26.75C14.625 25.9216 15.2966 25.25 16.125 25.25C16.9534 25.25 17.625 25.9216 17.625 26.75C17.625 26.9427 17.5887 27.127 17.5224 27.2962L18.4039 28.398C18.6735 28.735 19.0689 28.9454 19.4488 28.986C19.8113 29.0247 20.1453 28.9119 20.3931 28.6109C20.5744 28.3905 20.625 28.1521 20.625 27.5C20.625 26.2087 19.6919 25.1339 18.4631 24.9156L18.0077 24.8347L17.8755 24.3914C17.5062 23.1522 16.3575 22.25 15 22.25C14.2881 22.25 13.7683 22.5217 13.4017 23.0216Z" fill="black"></path> <path d="M6.47756 36.7038C6.41135 36.873 6.375 37.0573 6.375 37.25C6.375 38.0784 7.04657 38.75 7.875 38.75C8.70343 38.75 9.375 38.0784 9.375 37.25C9.375 36.4216 8.70343 35.75 7.875 35.75C7.79818 35.75 7.72271 35.7558 7.649 35.7669L6.76743 34.6649C6.25482 34.0242 5.49903 33.6067 4.71043 33.5225C4.06341 33.4534 3.38688 33.611 2.83278 34.0554C2.0471 33.7043 1.5 32.9153 1.5 32C1.5 31.0847 2.04708 30.2958 2.83274 29.9446C3.38683 30.3891 4.06337 30.5467 4.71042 30.4776C5.49906 30.3935 6.25491 29.976 6.76755 29.3352L7.64921 28.2331C7.72285 28.2442 7.79825 28.25 7.875 28.25C8.70343 28.25 9.375 27.5784 9.375 26.75C9.375 25.9216 8.70343 25.25 7.875 25.25C7.04657 25.25 6.375 25.9216 6.375 26.75C6.375 26.9428 6.41137 27.1271 6.47763 27.2964L5.59624 28.3982C5.32662 28.7352 4.9312 28.9456 4.55127 28.9861C4.18875 29.0248 3.85469 28.912 3.60698 28.611C3.42567 28.3906 3.37512 28.1522 3.37512 27.5001C3.37512 26.2089 4.3082 25.134 5.53701 24.9157L5.99246 24.8348L6.12459 24.3915C6.49391 23.1524 7.64263 22.2501 9.00012 22.2501C9.3289 22.2501 9.64389 22.3028 9.93801 22.3994L10.4065 20.9745C9.96306 20.8287 9.49002 20.7501 9.00012 20.7501C7.11866 20.7501 5.50843 21.9043 4.83591 23.5419C3.12457 24.0446 1.87512 25.6258 1.87512 27.5001C1.87512 27.8789 1.88291 28.2834 1.99407 28.6859C0.808044 29.3155 0 30.5628 0 32C0 33.4372 0.808009 34.6844 1.994 35.3141C1.88279 35.7166 1.875 36.1212 1.875 36.5C1.875 38.3743 3.12444 39.9555 4.83578 40.4582C5.50831 42.0959 7.11854 43.25 9 43.25C10.1631 43.25 11.1433 42.7717 11.8079 41.8654C12.4507 40.9889 12.75 39.7807 12.75 38.375V36.8023C12.75 35.9508 12.4602 35.1247 11.9283 34.4597L10.3974 32.5462C10.4637 32.377 10.5 32.1927 10.5 32C10.5 31.1716 9.82843 30.5 9 30.5C8.17157 30.5 7.5 31.1716 7.5 32C7.5 32.8284 8.17157 33.5 9 33.5C9.07682 33.5 9.15229 33.4942 9.226 33.4831L10.757 35.3968C11.0761 35.7957 11.25 36.2914 11.25 36.8023V38.375C11.25 39.5943 10.9868 40.4486 10.5983 40.9784C10.2317 41.4783 9.71191 41.75 9 41.75C7.64251 41.75 6.49379 40.8478 6.12446 39.6086L5.99234 39.1653L5.53689 39.0844C4.30808 38.8661 3.375 37.7913 3.375 36.5C3.375 35.8479 3.42555 35.6095 3.60692 35.3891C3.85466 35.0881 4.18871 34.9753 4.55121 35.014C4.93112 35.0546 5.32651 35.265 5.59612 35.602L6.47756 36.7038Z" fill="black"></path> </svg> 